<svg width="35" height="35" viewBox="0 0 35 35" fill="none" xmlns="http://www.w3.org/2000/svg">
<g id="ant-design:setting-filled">
<path id="Vector" d="M31.6094 21.3999L29.374 19.4893C29.48 18.8398 29.5347 18.1768 29.5347 17.5171C29.5347 16.8574 29.48 16.1909 29.374 15.5449L31.6094 13.6343C31.7782 13.4897 31.8991 13.2972 31.9559 13.0823C32.0127 12.8674 32.0027 12.6403 31.9272 12.4312L31.8965 12.3423C31.2813 10.622 30.3595 9.02739 29.1758 7.63574L29.1143 7.56396C28.9705 7.39495 28.7789 7.27346 28.5648 7.21549C28.3506 7.15753 28.1239 7.16582 27.9146 7.23926L25.1392 8.22705C24.1138 7.38623 22.9722 6.72314 21.7349 6.26172L21.1982 3.35986C21.1578 3.14126 21.0517 2.94015 20.8942 2.78324C20.7367 2.62634 20.5352 2.52108 20.3164 2.48145L20.2241 2.46436C18.4468 2.14307 16.5737 2.14307 14.7964 2.46436L14.7041 2.48145C14.4853 2.52108 14.2838 2.62634 14.1263 2.78324C13.9688 2.94015 13.8628 3.14126 13.8223 3.35986L13.2822 6.27539C12.0566 6.74049 10.9149 7.40197 9.90186 8.23389L7.10596 7.23926C6.89666 7.16523 6.66979 7.15665 6.4555 7.21465C6.24121 7.27265 6.04964 7.39448 5.90625 7.56396L5.84473 7.63574C4.66311 9.02887 3.74155 10.6231 3.12402 12.3423L3.09326 12.4312C2.93945 12.8584 3.06592 13.3369 3.41113 13.6343L5.67383 15.5654C5.56787 16.208 5.5166 16.8643 5.5166 17.5137C5.5166 18.1699 5.56787 18.8262 5.67383 19.4619L3.41797 21.3931C3.24911 21.5376 3.12825 21.7302 3.07147 21.9451C3.01469 22.16 3.02467 22.3871 3.1001 22.5962L3.13086 22.6851C3.74951 24.4043 4.66211 25.9937 5.85156 27.3916L5.91309 27.4634C6.05683 27.6324 6.2484 27.7539 6.46257 27.8118C6.67673 27.8698 6.90343 27.8615 7.11279 27.7881L9.90869 26.7935C10.9272 27.6309 12.062 28.2939 13.2891 28.752L13.8291 31.6675C13.8696 31.8861 13.9756 32.0872 14.1331 32.2441C14.2907 32.401 14.4922 32.5063 14.7109 32.5459L14.8032 32.563C16.5981 32.886 18.4361 32.886 20.231 32.563L20.3232 32.5459C20.542 32.5063 20.7435 32.401 20.901 32.2441C21.0585 32.0872 21.1646 31.8861 21.2051 31.6675L21.7417 28.7656C22.979 28.3008 24.1206 27.6411 25.146 26.8003L27.9214 27.7881C28.1307 27.8621 28.3575 27.8707 28.5718 27.8127C28.7861 27.7547 28.9777 27.6329 29.1211 27.4634L29.1826 27.3916C30.3721 25.9868 31.2847 24.4043 31.9033 22.6851L31.9341 22.5962C32.0811 22.1724 31.9546 21.6973 31.6094 21.3999ZM17.5171 23.1841C14.1982 23.1841 11.5083 20.4941 11.5083 17.1753C11.5083 13.8564 14.1982 11.1665 17.5171 11.1665C20.8359 11.1665 23.5259 13.8564 23.5259 17.1753C23.5259 20.4941 20.8359 23.1841 17.5171 23.1841Z" fill="#487BFF"/>
</g>
</svg>
