<svg width="28" height="26" viewBox="0 0 28 26" fill="none" xmlns="http://www.w3.org/2000/svg">
<path d="M12.2441 2.21957C13.0021 0.829692 14.9979 0.829689 15.7559 2.21957L18.2183 6.73483C18.506 7.26228 19.0155 7.63248 19.6061 7.74306L24.6613 8.68973C26.2174 8.98113 26.8341 10.8792 25.7464 12.0296L22.2131 15.7668C21.8004 16.2034 21.6058 16.8024 21.6831 17.3982L22.3449 22.4985C22.5486 24.0685 20.934 25.2415 19.5038 24.5626L14.8577 22.3571C14.3149 22.0995 13.6851 22.0995 13.1423 22.3571L8.49616 24.5626C7.06597 25.2415 5.4514 24.0685 5.65512 22.4985L6.31693 17.3982C6.39424 16.8024 6.19962 16.2034 5.78687 15.7668L2.25356 12.0296C1.16594 10.8792 1.78265 8.98113 3.33874 8.68973L8.39394 7.74306C8.98447 7.63248 9.49401 7.26228 9.78167 6.73483L12.2441 2.21957Z" stroke="white" stroke-width="2"/>
</svg>
